<svg fill="rgb(171, 185, 207)" version="1.1" id="Capa_1" xmlns="http://www.w3.org/2000/svg" xmlns:xlink="http://www.w3.org/1999/xlink" x="0px" y="0px" width="25px" height="25px"
                    viewBox="0 0 493.332 493.332" style="enable-background:new 0 0 326.234 326.234;" xml:space="preserve">
                    <path d="M352.731,450.956c3.037,9.789-2.044,20.213-11.616,23.878c-35.811,13.709-69.294,18.498-112.873,18.498
                    c-117.663,0-221.147-84.347-221.147-223.275C7.095,125.46,112.003,0,272.2,0c124.735,0,214.036,85.764,214.036,204.845
                    c0,103.483-58.12,168.693-134.66,168.693c-33.327,0-57.419-17.007-60.955-54.582h-1.424c-21.963,36.15-53.86,54.582-91.43,54.582
                    c-46.082,0-79.376-34.022-79.376-92.142c0-86.475,63.769-165.147,165.841-165.147c18.691,0,38.9,2.795,55.909,7.172
                    c16.425,4.227,26.861,20.236,24.147,36.978l-16.972,104.695c-7.072,41.818-2.112,60.953,17.721,61.666
                    c30.475,0.711,68.762-38.272,68.762-119.786c0-92.15-59.543-163.732-169.41-163.732c-108.444,0-203.428,85.051-203.428,220.436
                    c0,118.369,75.834,185.708,181.448,185.708c27.489,0,56.203-4.51,80.853-13.214c5.863-2.07,12.315-1.662,17.872,1.126
                    c5.558,2.788,9.753,7.716,11.595,13.655L352.731,450.956z M293.954,181.362c0.534-3.626-1.892-7.027-5.496-7.696
                    c-4.413-0.819-9.536-1.426-15.573-1.426c-46.771,0-83.617,46.076-83.617,100.653c0,26.94,12.037,43.946,35.423,43.946
                    c26.231,0,53.876-33.31,60.265-74.425L293.954,181.362z"/>
                </svg>